# xmcd CD database file generated by OrangeCD 5.2
#
# Track frame offsets:
#	150
#	14757
#	30587
#	51942
#	70657
#	82050
#	104235
#	122082
#	135692
#	155735
#	168170
#	185740
#	203340
#
# Disc length: 2953 seconds
#
# Revision: 3
# Processed by: cddbd v1.5.1PL0 Copyright (c) Steve Scherf et al.
# Submitted via: OrangeCD 5.2
#
DISCID=b90b870d
DTITLE=Steinar Albrigtsen - Life Is Good
DYEAR=1996
DGENRE=Blues
TTITLE0=Poor Stanley
TTITLE1=Shooting Ghosts
TTITLE2=Life Is Good
TTITLE3=I Can't See Myself
TTITLE4=Ol'time Jazz
TTITLE5=For Once
TTITLE6=Blue Skies, Hot Sun
TTITLE7=If I Give My Heart To You
TTITLE8=Blues In The Key Of Mississippi
TTITLE9=I'll Get By
TTITLE10=Small Town
TTITLE11=Never Got A Chance
TTITLE12=Golden Eagle Feather
EXTD=
EXTT0=
EXTT1=
EXTT2=
EXTT3=
EXTT4=
EXTT5=
EXTT6=
EXTT7=
EXTT8=
EXTT9=
EXTT10=
EXTT11=
EXTT12=
PLAYORDER=
